<?xml version="1.0" encoding="utf-8"?>
<svg version="1.1" id="Layer_1" xmlns="http://www.w3.org/2000/svg" xmlns:xlink="http://www.w3.org/1999/xlink" x="0px" y="0px"
	 width="603.5px" height="258.5px" viewBox="0 0 603.5 258.5" style="enable-background:new 0 0 603.5 258.5;" xml:space="preserve"
	>
<style type="text/css">
	.st0{fill:#C1D116;}
	.st1{fill:#76BC21;}
	.st2{fill:#00953B;}
</style>
<g id="LOGO">
	<path class="st0" d="M598.4,127.9c0-68.8-55.8-124.6-124.6-124.6C414,3.3,364.1,45.4,352,101.5h56.8c9.6-19.4,29.3-32.8,52.3-33
		c32.6-0.3,59.2,26.1,59.5,58.9s-25.9,59.6-58.5,59.9c-23.8,0.2-44.3-13.8-53.8-34h-56.5c11.7,56.7,61.9,99.3,122,99.3
		C542.6,252.6,598.4,196.8,598.4,127.9"/>
	<path class="st1" d="M585.5,127.9c0-55.3-44.8-100.1-100.1-100.1c-46.2,0-85,31.2-96.6,73.7h20.1c9.6-19.4,29.3-32.8,52.3-33
		c32.6-0.3,59.2,26.1,59.5,58.9s-25.9,59.6-58.5,59.9c-23.8,0.2-44.3-13.8-53.8-34h-19.9c11.2,43,50.3,74.8,96.9,74.8
		C540.7,228.1,585.5,183.2,585.5,127.9"/>
	<path class="st2" d="M558.4,127.9c0-45.2-36.7-81.9-81.9-81.9c-36,0-66.6,23.2-77.5,55.5h10c9.6-19.4,29.3-32.8,52.3-33
		c32.6-0.3,59.2,26.1,59.5,58.9c0.3,32.8-25.9,59.6-58.5,59.9c-23.8,0.2-44.3-13.8-53.8-34h-9.8c10.7,32.8,41.5,56.6,77.9,56.6
		C521.7,209.9,558.4,173.2,558.4,127.9"/>
	<path class="st2" d="M313.4,148.9c-3.2,3-6.7,4.4-10.5,4.4c-3.2,0-5.8-1.1-7.9-3.3c-2-2.2-3.1-4.9-3.1-8.1c0-4.4,3.4-7.9,10.2-10.5
		c4.9-1.8,10.2-2.9,16-3.1v10.4C318.1,142.5,316.5,145.9,313.4,148.9 M336.7,155.4c-1.7,0-2.9-0.3-3.4-0.8c-0.9-1-1.3-6.2-1.3-15.6
		v-25c0-6.6-2.5-11.7-7.4-15.3c-4.4-3.3-10.1-4.9-16.9-4.9c-7.7,0-14.5,2-20.3,6l-0.1,6.8c5.8-1.7,11.7-2.6,17.8-2.6
		c3.7,0,6.7,1.2,9.2,3.5c2.4,2.3,3.7,5.2,3.7,8.8v4c-26.7,1.1-40.1,9.2-40.1,24.4c0,5.3,2,9.7,5.9,13.2c3.6,3.3,8.2,4.9,13.5,4.9
		c4.2,0,8.3-1,12.4-3s7.2-4.7,9.5-8.1c-0.1,0.8-0.1,1.5-0.1,2.2c0,5.4,1.8,8.1,5.5,8.1c1,0,5.2-0.3,12.4-1v-5.6H336.7z M279.7,93.8
		c-11.2,0-18.8,4-22.8,11.9l-0.5-0.1v-10h-14.2V161h14.2v-45.5c6.1-6.6,12-9.9,17.8-9.9c2.2,0,4,0.3,5.5,0.8V93.8z M211.5,148.9
		c-3.2,3-6.7,4.4-10.5,4.4c-3.2,0-5.8-1.1-7.9-3.3c-2-2.2-3.1-4.9-3.1-8.1c0-4.4,3.4-7.9,10.2-10.5c4.9-1.8,10.2-2.9,16-3.1v10.4
		C216.2,142.5,214.6,145.9,211.5,148.9 M234.8,155.4c-1.7,0-2.9-0.3-3.4-0.8c-0.9-1-1.3-6.2-1.3-15.6v-25c0-6.6-2.5-11.7-7.4-15.3
		c-4.4-3.3-10.1-4.9-16.9-4.9c-7.7,0-14.5,2-20.3,6l-0.1,6.8c5.8-1.7,11.7-2.6,17.8-2.6c3.7,0,6.7,1.2,9.2,3.5
		c2.4,2.3,3.7,5.2,3.7,8.8v4c-26.7,1.1-40.1,9.2-40.1,24.4c0,5.3,2,9.7,5.9,13.2c3.6,3.3,8.2,4.9,13.5,4.9c4.2,0,8.3-1,12.4-3
		c4.1-2,7.2-4.7,9.5-8.1c-0.1,0.8-0.1,1.5-0.1,2.2c0,5.4,1.8,8.1,5.5,8.1c1,0,5.2-0.3,12.4-1v-5.6H234.8z M168.7,116.8
		c0-6.8-1.5-12.2-4.6-16.3c-3.5-4.5-8.5-6.8-15.1-6.8c-6.2,0-14.5,2.9-24.9,8.6c-3.2-5.7-8.2-8.6-15.1-8.6c-6.8,0-14.4,2.5-22.8,7.6
		v-5.9H72.1V161h14.2v-52.1c6.1-3.1,11.3-4.7,15.8-4.7c4.8,0,8,1.8,9.6,5.5c1,2.3,1.6,6.3,1.6,11.9V161h14.2v-44.2
		c0-2.6-0.3-5.2-0.8-7.8c5.9-3.1,11-4.7,15.4-4.7c8.3,0,12.5,5.8,12.5,17.4V161h14.2L168.7,116.8L168.7,116.8z M41,148.9
		c-3.2,3-6.7,4.4-10.5,4.4c-3.2,0-5.8-1.1-7.9-3.3c-2-2.2-3.1-4.9-3.1-8.1c0-4.4,3.4-7.9,10.2-10.5c4.9-1.8,10.2-2.9,16-3.1v10.4
		C45.8,142.5,44.2,145.9,41,148.9 M64.4,155.4c-1.7,0-2.9-0.3-3.4-0.8c-0.9-1-1.3-6.2-1.3-15.6v-25c0-6.6-2.5-11.7-7.4-15.3
		c-4.4-3.3-10.1-4.9-16.9-4.9c-7.7,0-14.5,2-20.3,6l-0.1,6.8c5.8-1.7,11.7-2.6,17.8-2.6c3.7,0,6.7,1.2,9.2,3.5
		c2.4,2.3,3.7,5.2,3.7,8.8v4c-26.7,1.1-40.1,9.2-40.1,24.4c0,5.3,2,9.7,5.9,13.2c3.6,3.3,8.2,4.9,13.5,4.9c4.2,0,8.3-1,12.4-3
		s7.2-4.7,9.5-8.1c-0.1,0.8-0.1,1.5-0.1,2.2c0,5.4,1.8,8.1,5.5,8.1c1,0,5.2-0.3,12.4-1v-5.6"/>
	<path class="st2" d="M497.7,144.6c2.4-1.2,4.6-2.7,6.4-4.8c1.8-2,3.3-4.4,4.3-7.1c1.1-2.7,1.6-5.7,1.6-8.8c0-2.5-0.4-4.6-1.1-6.6
		c-0.7-1.9-1.8-3.5-3.1-4.8c-1.3-1.3-2.9-2.3-4.7-3c-1.8-0.7-3.8-1-5.9-1c-2.8,0-5.4,0.6-7.8,1.7s-4.6,2.7-6.4,4.7s-3.3,4.4-4.3,7.1
		c-1.1,2.7-1.6,5.7-1.6,8.9c0,2.5,0.4,4.6,1.1,6.6c0.7,1.9,1.8,3.5,3.1,4.8c1.3,1.3,2.9,2.3,4.7,3c1.8,0.7,3.7,1,5.8,1
		C492.6,146.3,495.2,145.7,497.7,144.6 M485.9,137.4c-1-1.4-1.6-3.6-1.6-6.6c0-2.1,0.2-4.1,0.7-6s1.1-3.5,2-5
		c0.9-1.4,1.9-2.5,3.2-3.4c1.3-0.8,2.6-1.3,4.2-1.3c2.1,0,3.7,0.7,4.8,2.1c1,1.4,1.6,3.6,1.6,6.6c0,2.1-0.2,4.1-0.7,5.9
		c-0.5,1.9-1.1,3.5-2,5c-0.9,1.4-1.9,2.6-3.2,3.4c-1.2,0.8-2.6,1.3-4.2,1.3C488.6,139.5,487,138.8,485.9,137.4"/>
	<path class="st2" d="M359.7,111.9c0-1-0.3-1.7-0.8-2.2s-1.3-0.7-2.3-0.7H352l-4.6,36.8h9.2l2.1-18.3c0.5-1.8,1.2-3.4,2-4.9
		c0.8-1.4,1.7-2.7,2.7-3.7s2-1.8,3.1-2.4s2.1-0.8,3.1-0.8c1.5,0,2.6,0.5,3.1,1.6c0.6,1,0.7,2.8,0.4,5.1l-2.9,23.4h9.2l2.9-23.4
		c0.3-2.2,0.3-4.2-0.1-5.9c-0.3-1.7-0.9-3.2-1.7-4.4c-0.8-1.2-1.9-2.1-3.1-2.7c-1.3-0.6-2.7-0.9-4.3-0.9c-2.5,0-4.9,0.7-7.3,2
		s-4.5,3.4-6.4,6.1L359.7,111.9z"/>
	<path class="st2" d="M388.9,109l-0.9,6.8h16.4L385.1,139c-0.4,0.5-0.8,1-1,1.6c-0.3,0.6-0.4,1.1-0.4,1.5l-0.5,3.7H411l0.9-6.8H395
		l19.1-23c0.3-0.4,0.7-0.9,1-1.5s0.5-1.2,0.5-1.8l0.5-3.7H388.9z"/>
	<path class="st2" d="M424.4,130.3c4.7-0.5,8.5-1.1,11.5-1.8c3-0.8,5.4-1.7,7.2-2.8c1.8-1.1,3-2.3,3.6-3.7c0.7-1.4,1-2.9,1-4.5
		c0-1-0.2-2.1-0.7-3.2s-1.2-2-2.3-2.9c-1-0.9-2.3-1.6-3.8-2.1s-3.2-0.8-5.2-0.8c-2.1,0-4,0.3-5.8,0.9s-3.5,1.4-5,2.4s-2.8,2.2-4,3.7
		c-1.2,1.4-2.2,2.9-3,4.6s-1.4,3.4-1.9,5.3c-0.4,1.9-0.7,3.8-0.7,5.7c0,2.3,0.4,4.4,1.1,6.3c0.7,1.9,1.7,3.5,3,4.8s2.8,2.4,4.7,3.1
		c1.8,0.7,3.8,1.1,6.1,1.1c1.7,0,3.3-0.1,4.8-0.4c1.5-0.3,2.9-0.7,4.2-1.3c1.3-0.6,2.6-1.4,3.9-2.3s2.6-2,3.9-3.3l-2.3-2.7
		c-0.2-0.2-0.5-0.4-0.8-0.6c-0.3-0.1-0.6-0.2-0.9-0.2c-0.5,0-1,0.1-1.4,0.3s-0.9,0.4-1.3,0.7s-0.9,0.6-1.4,1s-1.1,0.7-1.7,1
		s-1.4,0.5-2.2,0.7s-1.8,0.3-2.9,0.3c-5.1,0-7.6-2.9-7.6-8.7v-0.6H424.4z M437.2,115c0.5,0.2,1,0.5,1.3,0.8s0.6,0.6,0.7,1
		c0.2,0.4,0.2,0.8,0.2,1.1c0,0.7-0.2,1.4-0.5,2.1s-1,1.3-2,1.8c-1,0.6-2.5,1.1-4.3,1.6c-1.9,0.5-4.4,0.9-7.4,1.3
		c0.4-1.5,0.9-2.8,1.5-4s1.4-2.3,2.2-3.2c0.9-0.9,1.8-1.6,2.9-2.1s2.2-0.7,3.5-0.7C436,114.7,436.7,114.8,437.2,115"/>
	<path class="st2" d="M462.7,111.9c0-1-0.3-1.7-0.8-2.2s-1.3-0.7-2.3-0.7H455l-4.6,36.8h9l2-16.3c1.4-5.3,3.2-8.9,5.5-10.7
		c2.3-1.8,4.9-2.1,8-0.9l1.7-8.5c-1.3-0.5-2.5-0.7-3.8-0.6s-2.5,0.6-3.7,1.3c-1.2,0.7-2.3,1.7-3.4,3s-2.1,2.9-3.1,4.7L462.7,111.9z"
		/>
	<path class="st2" d="M335,178.4c-2,0-3.3,0.7-4,2.1h-0.1v-1.8h-2.5v11.5h2.5v-8c1.1-1.2,2.1-1.7,3.1-1.7c0.4,0,0.7,0,1,0.1V178.4z
		 M317.2,183.2c0-0.8,0.3-1.5,0.8-2.2s1.2-1,2-1s1.5,0.3,2,1c0.4,0.6,0.6,1.3,0.7,2.2H317.2z M323.5,180.1c-0.8-1.1-2-1.6-3.6-1.6
		c-1.7,0-3,0.6-4,1.7c-0.9,1.1-1.4,2.5-1.4,4.2c0,1.8,0.5,3.3,1.4,4.4c1,1.2,2.4,1.7,4.2,1.7c1.5,0,2.8-0.3,3.9-0.9v-1.5
		c-0.8,0.4-1.8,0.6-3.1,0.6c-1.2,0-2.1-0.4-2.8-1.1c-0.7-0.7-1.1-1.7-1.1-2.8h7.5c0-0.4,0-0.6,0-0.8
		C324.6,182.3,324.2,181.1,323.5,180.1 M311,182.5c0-1.2-0.3-2.1-0.8-2.8c-0.6-0.8-1.5-1.2-2.6-1.2c-1.2,0-2.6,0.4-4.1,1.3v-1H301
		v11.5h2.5v-9.1c1.3-0.5,2.3-0.8,3.1-0.8c0.8,0,1.4,0.3,1.7,1c0.2,0.4,0.3,1.1,0.3,2.1v6.9h2.5v-7.9H311z M298,188.7
		c-0.5,0.1-1,0.2-1.5,0.2c-0.7,0-1.2-0.3-1.6-0.8s-0.6-1.1-0.6-1.8v-5.9h3.4v-1.7h-3.3V176l-1.2,0.3c-0.3,0.9-0.6,1.5-1,1.9
		s-1,0.8-1.9,1.2v1h1.5v1.7v4.4c0,1.2,0.3,2.1,0.8,2.8c0.6,0.8,1.5,1.2,2.6,1.2c1.2,0,2.1-0.2,2.7-0.7v-1.1H298z M288.2,178.4
		c-2,0-3.3,0.7-4,2.1h-0.1v-1.8h-2.5v11.5h2.5v-8c1.1-1.2,2.1-1.7,3.1-1.7c0.4,0,0.7,0,1,0.1V178.4z M273.9,188.1
		c-0.6,0.5-1.2,0.8-1.8,0.8c-0.6,0-1-0.2-1.4-0.6c-0.4-0.4-0.5-0.9-0.5-1.4c0-0.8,0.6-1.4,1.8-1.8c0.9-0.3,1.8-0.5,2.8-0.5v1.8
		C274.7,187,274.4,187.6,273.9,188.1 M277.9,189.2c-0.3,0-0.5,0-0.6-0.1c-0.2-0.2-0.2-1.1-0.2-2.7V182c0-1.2-0.4-2-1.3-2.7
		c-0.8-0.6-1.8-0.9-3-0.9c-1.4,0-2.5,0.3-3.6,1v1.2c1-0.3,2-0.5,3.1-0.5c0.6,0,1.2,0.2,1.6,0.6c0.4,0.4,0.6,0.9,0.6,1.5v0.7
		c-4.7,0.2-7,1.6-7,4.3c0,0.9,0.3,1.7,1,2.3c0.6,0.6,1.4,0.9,2.4,0.9c0.7,0,1.5-0.2,2.2-0.5c0.7-0.4,1.3-0.8,1.7-1.4
		c0,0.1,0,0.3,0,0.4c0,0.9,0.3,1.4,1,1.4c0.2,0,0.9-0.1,2.2-0.2v-0.9H277.9z M262.3,182.2c-0.7,0.6-1.4,0.9-2.3,0.9
		s-1.5-0.1-1.9-0.1v-5.4c0.9-0.1,1.6-0.1,2.1-0.1c1,0,1.7,0.2,2.2,0.5c0.6,0.4,0.9,1.1,0.9,2C263.3,180.9,263,181.6,262.3,182.2
		 M261.1,175.6h-5.5v14.6h2.5v-5.4h1.8c1.6,0,3-0.4,4.1-1.2c1.3-0.9,1.9-2.2,1.9-3.7C265.8,177,264.3,175.6,261.1,175.6
		 M244.1,178.7l-3.6,8.7l-3.2-8.7h-2.8l4.5,11.4l-2.5,5.4h2.7l7-16.8L244.1,178.7L244.1,178.7z M224.7,183.2c0-0.8,0.3-1.5,0.8-2.2
		s1.2-1,2-1s1.5,0.3,2,1c0.4,0.6,0.6,1.3,0.7,2.2H224.7z M231,180.1c-0.8-1.1-2-1.6-3.6-1.6c-1.7,0-3,0.6-4,1.7
		c-0.9,1.1-1.4,2.5-1.4,4.2c0,1.8,0.5,3.3,1.4,4.4c1,1.2,2.4,1.7,4.2,1.7c1.5,0,2.8-0.3,3.9-0.9v-1.5c-0.8,0.4-1.8,0.6-3.1,0.6
		c-1.2,0-2.1-0.4-2.8-1.1c-0.7-0.7-1.1-1.7-1.1-2.8h7.5c0-0.4,0-0.6,0-0.8C232.1,182.3,231.8,181.1,231,180.1 M211,175.6h-2.5v14.6
		h2.5V175.6z M213.6,182.2l5.4-6.6h-2.4l-5.6,7.1l5.9,7.5h3L213.6,182.2z M197.8,182.5c0-1.2-0.3-2.1-0.8-2.8
		c-0.6-0.8-1.5-1.2-2.6-1.2c-1.2,0-2.6,0.4-4.1,1.3v-1h-2.5v11.5h2.5v-9.1c1.3-0.5,2.3-0.8,3.1-0.8s1.4,0.3,1.7,1
		c0.2,0.4,0.3,1.1,0.3,2.1v6.9h2.5L197.8,182.5L197.8,182.5z M181,187.4c-0.6,1-1.4,1.4-2.6,1.4c-1.1,0-2-0.5-2.6-1.4
		c-0.5-0.8-0.7-1.8-0.7-3s0.2-2.2,0.8-2.9c0.6-0.9,1.4-1.4,2.5-1.4s1.9,0.5,2.5,1.4c0.5,0.8,0.7,1.8,0.7,2.9
		C181.7,185.6,181.4,186.6,181,187.4 M182.6,180c-1-1-2.4-1.5-4.2-1.5c-1.9,0-3.3,0.5-4.2,1.5c-1,1-1.4,2.5-1.4,4.4s0.5,3.4,1.4,4.4
		c1,1.1,2.4,1.7,4.3,1.7c1.9,0,3.3-0.6,4.3-1.7c0.9-1.1,1.4-2.5,1.4-4.4C184.1,182.5,183.6,181,182.6,180 M169,178.7h-2.5v11.5h2.5
		V178.7z M168.8,174.8c-0.3-0.3-0.6-0.4-1-0.4s-0.7,0.1-1,0.4c-0.3,0.3-0.4,0.6-0.4,1s0.1,0.7,0.4,0.9c0.3,0.3,0.6,0.4,1,0.4
		s0.7-0.1,1-0.4c0.3-0.3,0.4-0.6,0.4-0.9C169.2,175.4,169.1,175.1,168.8,174.8 M163.5,188.7c-0.5,0.1-1,0.2-1.5,0.2
		c-0.7,0-1.2-0.3-1.6-0.8c-0.4-0.5-0.6-1.1-0.6-1.8v-5.9h3.4v-1.7h-3.3V176l-1.2,0.3c-0.3,0.9-0.6,1.5-1,1.9s-1,0.8-1.9,1.2v1h1.6
		v1.7v4.4c0,1.2,0.3,2.1,0.8,2.8c0.6,0.8,1.5,1.2,2.6,1.2c1.2,0,2.1-0.2,2.7-0.7V188.7z M152.4,178.7h-2.5v11.5h2.5V178.7z
		 M152.2,174.8c-0.3-0.3-0.6-0.4-1-0.4s-0.7,0.1-1,0.4s-0.4,0.6-0.4,1s0.1,0.7,0.4,0.9c0.3,0.3,0.6,0.4,1,0.4s0.7-0.1,1-0.4
		c0.3-0.3,0.4-0.6,0.4-0.9C152.6,175.4,152.5,175.1,152.2,174.8 M144.6,184.3c-0.1-0.1-1.1-0.5-2.9-1.1c-1-0.4-1.5-0.9-1.5-1.5
		s0.3-1,1-1.3c0.5-0.2,1.1-0.3,1.7-0.3c0.9,0,1.8,0.2,2.6,0.6v-1.4c-1.1-0.5-2.3-0.8-3.4-0.8c-1.1,0-2.1,0.3-2.9,0.9
		c-0.9,0.7-1.3,1.5-1.3,2.6s0.5,2,1.5,2.6c0.1,0.1,1.1,0.4,2.8,1.1c1,0.4,1.5,0.9,1.5,1.5c0,0.5-0.2,0.9-0.7,1.2
		c-0.4,0.3-0.9,0.4-1.4,0.4c-0.6,0-1.2-0.1-1.9-0.3s-1.3-0.5-1.8-0.9v1.8c1.1,0.7,2.4,1.1,3.7,1.1c1.2,0,2.2-0.3,3-0.9
		c0.9-0.7,1.4-1.6,1.4-2.7C146.1,185.8,145.6,184.9,144.6,184.3 M134,182.5c0-1.2-0.3-2.1-0.8-2.8c-0.6-0.8-1.5-1.2-2.6-1.2
		c-1.2,0-2.6,0.4-4.1,1.3v-1H124v11.5h2.5v-9.1c1.3-0.5,2.3-0.8,3.1-0.8s1.4,0.3,1.7,1c0.2,0.4,0.3,1.1,0.3,2.1v6.9h2.5v-7.9H134z
		 M116.2,188.1c-0.6,0.5-1.2,0.8-1.8,0.8c-0.6,0-1-0.2-1.4-0.6c-0.4-0.4-0.5-0.9-0.5-1.4c0-0.8,0.6-1.4,1.8-1.8
		c0.8-0.3,1.8-0.5,2.8-0.5v1.8C117,187,116.8,187.6,116.2,188.1 M120.3,189.2c-0.3,0-0.5,0-0.6-0.1c-0.2-0.2-0.2-1.1-0.2-2.7V182
		c0-1.2-0.4-2-1.3-2.7c-0.8-0.6-1.8-0.9-3-0.9c-1.4,0-2.5,0.3-3.6,1v1.2c1-0.3,2-0.5,3.1-0.5c0.6,0,1.2,0.2,1.6,0.6
		c0.4,0.4,0.6,0.9,0.6,1.5v0.7c-4.7,0.2-7,1.6-7,4.3c0,0.9,0.3,1.7,1,2.3c0.6,0.6,1.4,0.9,2.4,0.9c0.7,0,1.4-0.2,2.2-0.5
		c0.7-0.4,1.3-0.8,1.7-1.4c0,0.1,0,0.3,0,0.4c0,0.9,0.3,1.4,1,1.4c0.2,0,0.9-0.1,2.2-0.2L120.3,189.2L120.3,189.2z M107.8,178.4
		c-2,0-3.3,0.7-4,2.1h-0.1v-1.8h-2.5v11.5h2.5v-8c1.1-1.2,2.1-1.7,3.1-1.7c0.4,0,0.7,0,1,0.1V178.4z M99.1,175.6H87v1.9h4.8v12.7
		h2.5v-12.7h4.8C99.1,177.5,99.1,175.6,99.1,175.6z M77,178.7l-3.6,8.7l-3.2-8.7h-2.8l4.5,11.4l-2.5,5.4h2.7l6.9-16.8L77,178.7
		L77,178.7z M61,184.8c-0.5,0.6-1.1,1-1.9,1s-1.4-0.3-1.8-1c-0.4-0.6-0.6-1.3-0.6-2.1s0.2-1.4,0.6-2c0.4-0.5,1-0.8,1.8-0.8
		s1.4,0.3,1.8,0.8c0.4,0.5,0.7,1.2,0.7,2S61.4,184.2,61,184.8 M64.7,178.3l-3.7,0.3c-0.6-0.2-1.2-0.2-1.9-0.2
		c-3.2,0-4.8,1.4-4.8,4.2c0,1.7,0.7,3,2.1,3.8c-1.1,1.1-1.6,1.9-1.6,2.5c0,0.7,0.7,1.1,2,1.3c1.3,0.1,2.5,0.1,3.8,0.2
		c1.3,0.1,2,0.5,2,1.2s-0.6,1.2-1.8,1.6c-0.9,0.3-1.7,0.4-2.6,0.4c-1.5,0-2.9-0.3-4-0.8v1.6c1.3,0.7,2.6,1.1,3.9,1.1
		c1.6,0,3-0.3,4.2-0.8c1.5-0.7,2.3-1.8,2.3-3.2s-0.7-2.2-2.2-2.7c-0.8-0.2-2-0.3-3.8-0.3c-1.1,0-1.6-0.2-1.6-0.7
		c0-0.2,0.1-0.5,0.4-0.9c0.5,0.1,1,0.2,1.5,0.2c1.3,0,2.5-0.4,3.5-1.2c1.1-0.9,1.6-1.9,1.6-3.2c0-1.1-0.3-1.9-1-2.7
		c0.7,0,1.3,0,1.7,0.1V178.3z M51.6,178.4c-2,0-3.3,0.7-4,2.1h-0.1v-1.8H45v11.5h2.5v-8c1.1-1.2,2.1-1.7,3.1-1.7c0.4,0,0.7,0,1,0.1
		V178.4z M33.8,183.2c0-0.8,0.3-1.5,0.8-2.2s1.2-1,2-1s1.5,0.3,2,1c0.4,0.6,0.6,1.3,0.7,2.2H33.8z M40.2,180.1
		c-0.8-1.1-2-1.6-3.6-1.6c-1.7,0-3,0.6-4,1.7c-0.9,1.1-1.4,2.5-1.4,4.2c0,1.8,0.5,3.3,1.4,4.4c1,1.2,2.4,1.7,4.2,1.7
		c1.5,0,2.8-0.3,3.9-0.9v-1.5c-0.8,0.4-1.8,0.6-3.1,0.6c-1.2,0-2.1-0.4-2.8-1.1c-0.7-0.7-1.1-1.7-1.1-2.8h7.5c0-0.4,0-0.6,0-0.8
		C41.2,182.3,40.9,181.1,40.2,180.1 M27.6,182.5c0-1.2-0.3-2.1-0.8-2.8c-0.6-0.8-1.5-1.2-2.6-1.2c-1.2,0-2.6,0.4-4.1,1.3v-1h-2.5
		v11.5h2.5v-9.1c1.3-0.5,2.3-0.8,3.1-0.8c0.8,0,1.4,0.3,1.7,1c0.2,0.4,0.3,1.1,0.3,2.1v6.9h2.5v-7.9H27.6z M14.1,188.3H7v-4.7h6.2
		v-1.8H7v-4.3h7.1v-1.9H4.5v14.6H14v-1.9H14.1z"/>
</g>
</svg>
