<?xml version="1.0" encoding="utf-8"?>
<!-- Generator: Adobe Illustrator 19.0.0, SVG Export Plug-In . SVG Version: 6.00 Build 0)  -->
<svg version="1.1" id="layer" xmlns="http://www.w3.org/2000/svg" xmlns:xlink="http://www.w3.org/1999/xlink" x="0px" y="0px"
	 viewBox="-153 -46 652 652" style="enable-background:new -153 -46 652 652;" xml:space="preserve">
<style type="text/css">
	.st0{fill:#007935;}
	.st1{fill:#E51B24;}
</style>
<path class="st0" d="M3.6,258.3v10.8H24v8.3H3.6v23.7h-14.1V250h35.9v8.3H3.6z M32.5,301.1h13.6v-51.1H32.5V301.1z M53.6,269.3V288
	c0,9.3,7.1,14.1,21.1,14.1c14,0,21.1-4.9,21.1-14.1v-18.7H82.4v17.2c0,3.6-0.9,8-7.7,8c-6.8,0-7.7-4.3-7.7-8v-17.2H53.6z
	 M104.3,301.1h13.6v-31.8h-13.6V301.1z M158.8,301.1h13.4v-51h-13.4v22.1h-0.2c-3-2.5-8-4-12.8-4c-13.5,0-21.5,8.4-21.5,16.8
	c0,8.6,7.9,17.1,21.7,17.1c4.9,0,9.9-1.4,12.7-4h0.2V301.1z M160.1,285.2c0,4.3-4.2,9-11.1,9c-6.9,0-11.1-4.7-11.1-9
	c0-4.3,4.2-8.9,11.1-8.9C155.9,276.3,160.1,280.9,160.1,285.2 M193.6,269.3h-13.4v31.8h13.4v-15.6c0-3.4-0.4-10,7.1-10
	c7,0,6.4,6.4,6.4,9.5v16.1h13.4v-15.6c0-3.3-0.1-10,7.2-10c6.6,0,6.3,5.8,6.3,8.9v16.7h13.4v-19.8c0-6.9-3-13-15-13
	c-5.5,0-10.9,1.9-13.7,5c-3.1-3.4-7.7-5-13.6-5c-4.3,0-8.9,1.4-11.5,3.9h-0.2V269.3z M301.3,269.3h-13.3v3c-3.3-2.6-8.3-4-13.1-4
	c-13.5,0-21.5,8.4-21.5,16.8c0,8.6,7.9,17.1,21.7,17.1c4.9,0,9.9-1.4,12.8-4h0.2v2.9h13.3V269.3z M289.4,285.2c0,4.3-4.3,9-11.2,9
	c-6.9,0-11.1-4.7-11.1-9c0-4.3,4.2-8.9,11.1-8.9C285.1,276.3,289.4,280.9,289.4,285.2 M340.6,271.6c-3.8-2.3-10.2-3.3-15.2-3.3
	c-8.8,0-15,4.4-15,10.3c0,5.1,4.7,7,9.4,8.4c4.7,1.4,9.4,2,9.4,4.8c0,2.1-2.4,3.4-5.4,3.4c-3.9,0-7.4-1.8-10-3.7l-6.1,5.4
	c4.1,3.4,10.3,5.3,16.6,5.3c9.9,0,18.3-4.2,18.3-11.3c0-5.5-4.8-7.7-9.7-9.1c-4.8-1.5-9.7-2.1-9.7-4.4c0-1.5,2.2-2.7,4.4-2.7
	c2.7,0,5.2,1,7.1,2.2L340.6,271.6z M364.6,276.9h8.3v-7.7h-8.3v-10.8h-13.4v10.8h-4.6v7.7h4.6v24.2h13.4V276.9z M421.2,286.7v-1.1
	c0-9.6-6.9-17.3-22.4-17.3c-15.3,0-22.8,7.6-22.8,17.3c0,9.7,8.9,16.7,23.5,16.7c9.9,0,18.1-3.6,21.4-9.9l-12.4-1.4
	c-1.8,2.5-4.6,4.4-9,4.4c-7,0-9.3-4.6-9.3-8.6H421.2z M390.6,281c0.7-3.3,3.6-6.4,9-6.4c5.2,0,8.3,3.2,8.9,6.4H390.6z M441.7,269.3
	h-13.4v31.8h13.4v-14.3c0-4.9,0.9-10.5,10.3-10.5c2,0,3.9,0.4,5.6,1.1l1.6-8.4c-1.7-0.5-3.6-0.8-5.6-0.8c-5,0-9,1.6-11.7,4.4h-0.2
	V269.3z M456.8,295.8c0,3.2,2.5,5.7,5.6,5.7c3.1,0,5.6-2.5,5.6-5.7c0-3.1-2.5-5.6-5.6-5.6C459.3,290.2,456.8,292.7,456.8,295.8
	 M467,295.8c0,2.8-1.9,4.7-4.6,4.7c-2.7,0-4.6-1.9-4.6-4.7c0-2.8,1.9-4.7,4.6-4.7C465.1,291.2,467,293,467,295.8 M463.6,296.3
	c0.8-0.1,1.3-0.6,1.3-1.6c0-1.4-0.7-1.8-2-1.8h-2.8v5.9h1.2v-2.5h0.9l1.3,2.5h1.4L463.6,296.3z M461.3,295.2V294h1.3
	c0.6,0,1.1,0,1.1,0.5c0,0.6-0.5,0.6-1.1,0.6H461.3z M118.5,257.5c0-4.2-3.4-7.5-7.5-7.5c-4.1,0-7.5,3.4-7.5,7.5
	c0,4.1,3.4,7.5,7.5,7.5C115.1,265,118.5,261.6,118.5,257.5"/>
<path class="st1" d="M-118.4,273.7h-4.7v-6.9l-8.9,7.7l8.9,8.4v-7.1h4.7c0-0.3,0-0.5,0-0.8C-118.4,274.5-118.4,274.1-118.4,273.7"/>
<path class="st0" d="M-27.3,274.5l-8.9-7.7v6.9h-4.6c0,0.4,0,0.9,0,1.3c0,0.3,0,0.5,0,0.8h4.6v7.1L-27.3,274.5z"/>
<path class="st1" d="M-79.6,236.2c-21,0-38.1,16.7-38.8,37.5h77.5C-41.6,252.9-58.6,236.2-79.6,236.2 M-54.4,271.6
	c-7.7,0-11.6-1.3-18.2-12.2c-6.4-10.5-19.6-5.7-19.6,1.1c0,6,5.7,9.3,10.2,9.3v1.7c-10.5,0-15.4-5.5-15.4-13
	c0-16.6,20.3-18.6,26.8-4.6c6,12.6,9.8,15.4,16.2,16.1V271.6z M-118.4,275.8c0.4,21.1,17.6,38,38.8,38c21.2,0,38.4-17,38.8-38
	H-118.4z M-54.4,279.7c-6.4,0.7-10.2,3.4-16.2,16c-6.6,14-26.8,12-26.8-4.6c0-7.6,4.9-13,15.4-13v1.6c-4.5,0-10.2,3.4-10.2,9.4
	c0,6.8,13.1,11.6,19.6,1.1c6.7-10.9,10.6-12.2,18.2-12.2V279.7z"/>
</svg>
